<svg xmlns="http://www.w3.org/2000/svg" xmlns:xlink="http://www.w3.org/1999/xlink" width="1440" height="2960" viewBox="0 0 1440 2960">
  <defs>
    <filter id="Polygon_1" x="-560" y="-507" width="1368.139" height="1294.985" filterUnits="userSpaceOnUse">
      <feOffset dx="24" dy="24" input="SourceAlpha"/>
      <feGaussianBlur stdDeviation="48" result="blur"/>
      <feFlood flood-color="#465062" flood-opacity="0.251"/>
      <feComposite operator="in" in2="blur"/>
      <feComposite in="SourceGraphic"/>
    </filter>
    <filter id="Polygon_3" x="-504" y="2326.626" width="1202.403" height="1140.408" filterUnits="userSpaceOnUse">
      <feOffset dx="24" dy="-24" input="SourceAlpha"/>
      <feGaussianBlur stdDeviation="48" result="blur-2"/>
      <feFlood flood-color="#465062" flood-opacity="0.251"/>
      <feComposite operator="in" in2="blur-2"/>
      <feComposite in="SourceGraphic"/>
    </filter>
    <filter id="Polygon_2" x="981.201" y="872.593" width="1019.522" height="969.926" filterUnits="userSpaceOnUse">
      <feOffset dx="-24" dy="24" input="SourceAlpha"/>
      <feGaussianBlur stdDeviation="48" result="blur-3"/>
      <feFlood flood-color="#465062" flood-opacity="0.251"/>
      <feComposite operator="in" in2="blur-3"/>
      <feComposite in="SourceGraphic"/>
    </filter>
    <clipPath id="clip-custom_1">
      <rect width="1440" height="2960"/>
    </clipPath>
  </defs>
  <g id="custom_1" data-name="custom – 1" clip-path="url(#clip-custom_1)">
    <g id="Group_1" data-name="Group 1" transform="translate(75.204 -146.724)">
      <g transform="matrix(1, 0, 0, 1, -75.2, 146.72)" filter="url(#Polygon_1)">
        <path id="Polygon_1-2" data-name="Polygon 1" d="M623.052,0a64,64,0,0,1,55.424,32L861.52,349a64,64,0,0,1,0,64.006L678.476,730a64,64,0,0,1-55.424,32h-366.1a64,64,0,0,1-55.424-32L18.48,413a64,64,0,0,1,0-64.006L201.524,32A64,64,0,0,1,256.948,0Z" transform="translate(-191.92 -387) rotate(19)" fill="#26d07c"/>
      </g>
      <g transform="matrix(1, 0, 0, 1, -75.2, 146.72)" filter="url(#Polygon_3)">
        <path id="Polygon_3-2" data-name="Polygon 3" d="M521.8,0a64,64,0,0,1,55.422,31.993l149.289,258.5a64,64,0,0,1,0,64.014l-149.289,258.5A64,64,0,0,1,521.8,645H223.195a64,64,0,0,1-55.422-31.993L18.485,354.507a64,64,0,0,1,0-64.014l149.289-258.5A64,64,0,0,1,223.2,0Z" transform="translate(-174.01 2494.63) rotate(19)" fill="#26d07c"/>
      </g>
      <g transform="matrix(1, 0, 0, 1, -75.2, 146.72)" filter="url(#Polygon_2)">
        <path id="Polygon_2-2" data-name="Polygon 2" d="M410.055,0a64,64,0,0,1,55.422,31.993l112.039,194a64,64,0,0,1,0,64.014l-112.039,194A64,64,0,0,1,410.055,516H185.945a64,64,0,0,1-55.422-31.993l-112.039-194a64,64,0,0,1,0-64.014l112.039-194A64,64,0,0,1,185.945,0Z" transform="translate(1317.19 992.59) rotate(19)" fill="#26d07c"/>
      </g>
    </g>
  </g>
</svg>
